<svg xmlns="http://www.w3.org/2000/svg" width="22.647" height="22.647" viewBox="0 0 22.647 22.647">
  <g id="google" transform="translate(0 0)">
    <path id="Path_3258" data-name="Path 3258" d="M53.4,302.174a11.2,11.2,0,0,1-17-2.879l.735-3.389,3.259-.6a6.013,6.013,0,0,0,5.719,4.233,5.885,5.885,0,0,0,3.5-1.141l3.132.478Z" transform="translate(-34.79 -282.239)" fill="#59c36a"/>
    <path id="Path_3259" data-name="Path 3259" d="M263.285,368.982l-.65-3.3L259.5,365.2a5.886,5.886,0,0,1-3.5,1.141v5.352A11.306,11.306,0,0,0,263.285,368.982Z" transform="translate(-244.677 -349.047)" fill="#00a66c"/>
    <g id="Connected_Home_1_" transform="translate(0 5.591)">
      <g id="Group_681" data-name="Group 681">
        <g id="Group_680" data-name="Group 680">
          <g id="Group_679" data-name="Group 679">
            <path id="Path_3260" data-name="Path 3260" d="M5.352,132.132a6.184,6.184,0,0,0,.252,1.738L1.61,137.865a11.01,11.01,0,0,1,0-11.465l3.206.552.789,3.442A6.183,6.183,0,0,0,5.352,132.132Z" transform="translate(0 -126.4)" fill="#ffda2d"/>
          </g>
        </g>
      </g>
    </g>
    <path id="Path_3261" data-name="Path 3261" d="M252.987,198.654a11.306,11.306,0,0,1-4.038,8.612l-3.782-3.782a5.871,5.871,0,0,0,1.844-2.176h-5.348a.657.657,0,0,1-.663-.663v-3.981a.657.657,0,0,1,.663-.663h10.474a.656.656,0,0,1,.65.544A11.252,11.252,0,0,1,252.987,198.654Z" transform="translate(-230.34 -187.331)" fill="#4086f4"/>
    <path id="Path_3262" data-name="Path 3262" d="M261.348,201.308a5.872,5.872,0,0,1-1.844,2.176l3.782,3.782a11.215,11.215,0,0,0,3.839-10.722.656.656,0,0,0-.65-.544H256v5.308Z" transform="translate(-244.677 -187.331)" fill="#4175df"/>
    <path id="Path_3263" data-name="Path 3263" d="M53.584,3.163a.67.67,0,0,1-.186.491L50.559,6.48a.65.65,0,0,1-.862.066,5.935,5.935,0,0,0-3.583-1.194,6.013,6.013,0,0,0-5.719,4.233L36.4,5.591A11.191,11.191,0,0,1,53.345,2.672a.7.7,0,0,1,.239.491Z" transform="translate(-34.79 0)" fill="#ff641a"/>
    <path id="Path_3264" data-name="Path 3264" d="M259.583,6.546a.65.65,0,0,0,.862-.066l2.84-2.826a.669.669,0,0,0,.186-.491.7.7,0,0,0-.239-.491A11.29,11.29,0,0,0,256,0V5.352A5.935,5.935,0,0,1,259.583,6.546Z" transform="translate(-244.677 0)" fill="#f03800"/>
  </g>
</svg>
