<svg xmlns="http://www.w3.org/2000/svg" width="16.957" height="16.962" viewBox="0 0 16.957 16.962">
  <g id="_001-instagram" data-name="001-instagram" transform="translate(0 0)">
    <path id="Path_3085" data-name="Path 3085" d="M17.362,4.987a6.2,6.2,0,0,0-.394-2.058A4.345,4.345,0,0,0,14.487.447,6.213,6.213,0,0,0,12.429.053C11.521.01,11.233,0,8.93,0s-2.591.01-3.5.05A6.2,6.2,0,0,0,3.377.444a4.138,4.138,0,0,0-1.5.981A4.176,4.176,0,0,0,.9,2.926,6.215,6.215,0,0,0,.5,4.983c-.043.908-.053,1.2-.053,3.5s.01,2.591.05,3.5a6.2,6.2,0,0,0,.394,2.058,4.344,4.344,0,0,0,2.482,2.482,6.214,6.214,0,0,0,2.058.394c.9.04,1.193.05,3.5.05s2.591-.01,3.5-.05a6.2,6.2,0,0,0,2.057-.394,4.338,4.338,0,0,0,2.482-2.482,6.219,6.219,0,0,0,.394-2.058c.04-.9.05-1.193.05-3.5s0-2.591-.043-3.5Zm-1.527,6.925a4.649,4.649,0,0,1-.292,1.574,2.814,2.814,0,0,1-1.61,1.61,4.665,4.665,0,0,1-1.574.291c-.895.04-1.163.05-3.426.05s-2.535-.01-3.426-.05A4.646,4.646,0,0,1,3.934,15.1a2.61,2.61,0,0,1-.974-.633,2.637,2.637,0,0,1-.633-.974,4.667,4.667,0,0,1-.291-1.574c-.04-.895-.05-1.163-.05-3.426s.01-2.535.05-3.426a4.647,4.647,0,0,1,.291-1.574,2.578,2.578,0,0,1,.636-.974,2.633,2.633,0,0,1,.974-.633,4.668,4.668,0,0,1,1.574-.292c.895-.04,1.163-.05,3.426-.05s2.535.01,3.426.05a4.648,4.648,0,0,1,1.574.292,2.608,2.608,0,0,1,.974.633,2.636,2.636,0,0,1,.633.974,4.668,4.668,0,0,1,.292,1.574c.04.895.05,1.163.05,3.426s-.01,2.528-.05,3.423Zm0,0" transform="translate(-0.449 0)" fill="#393177"/>
    <path id="Path_3086" data-name="Path 3086" d="M129.306,124.5a4.358,4.358,0,1,0,4.357,4.358A4.358,4.358,0,0,0,129.306,124.5Zm0,7.184a2.827,2.827,0,1,1,2.826-2.827A2.827,2.827,0,0,1,129.306,131.684Zm0,0" transform="translate(-120.824 -120.375)" fill="#393177"/>
    <path id="Path_3087" data-name="Path 3087" d="M364.484,89.619a1.017,1.017,0,1,1-1.017-1.017A1.017,1.017,0,0,1,364.484,89.619Zm0,0" transform="translate(-350.456 -85.666)" fill="#393177"/>
  </g>
</svg>
