<svg id="Group_805" data-name="Group 805" xmlns="http://www.w3.org/2000/svg" width="14.821" height="14.821" viewBox="0 0 14.821 14.821">
  <path id="Path_3284" data-name="Path 3284" d="M13.651,9.759a8.473,8.473,0,0,1-2.658-.423,1.139,1.139,0,0,0-1.157.245L8.153,10.852A9.4,9.4,0,0,1,3.971,6.67L5.207,5.027A1.181,1.181,0,0,0,5.5,3.833,8.47,8.47,0,0,1,5.07,1.17,1.172,1.172,0,0,0,3.9,0H1.17A1.172,1.172,0,0,0,0,1.17,13.667,13.667,0,0,0,13.651,14.821a1.172,1.172,0,0,0,1.17-1.17V10.929A1.172,1.172,0,0,0,13.651,9.759Z" fill="#393177"/>
</svg>
