<svg xmlns="http://www.w3.org/2000/svg" width="15.6" height="15.6" viewBox="0 0 15.6 15.6">
  <g id="google" transform="translate(0 0)">
    <path id="Path_3231" data-name="Path 3231" d="M3.656,104.961a4.118,4.118,0,0,1,.583-2.117v-2.63H1.609a7.8,7.8,0,0,0,0,9.493h2.63v-2.63A4.118,4.118,0,0,1,3.656,104.961Z" transform="translate(0 -97.162)" fill="#fbbd00"/>
    <path id="Path_3232" data-name="Path 3232" d="M197.828,373.541,196,375.369l1.828,1.828a7.74,7.74,0,0,0,4.746-1.609v-2.627h-2.627A4.143,4.143,0,0,1,197.828,373.541Z" transform="translate(-190.028 -361.598)" fill="#0f9d58"/>
    <path id="Path_3233" data-name="Path 3233" d="M55.453,325.477l-2.63,2.63a7.927,7.927,0,0,0,.675.769,7.749,7.749,0,0,0,5.515,2.284V327.5A4.145,4.145,0,0,1,55.453,325.477Z" transform="translate(-51.214 -315.56)" fill="#31aa52"/>
    <path id="Path_3234" data-name="Path 3234" d="M263.8,199.112a7.867,7.867,0,0,0-.128-1.413l-.069-.375H256v3.656h3.7a4.125,4.125,0,0,1-1.581,1.7l2.627,2.627a7.927,7.927,0,0,0,.769-.675A7.749,7.749,0,0,0,263.8,199.112Z" transform="translate(-248.2 -191.312)" fill="#3c79e6"/>
    <path id="Path_3235" data-name="Path 3235" d="M200.758,4.87l.323.323,2.585-2.585-.323-.323A7.749,7.749,0,0,0,197.828,0L196,1.828l1.828,1.828A4.117,4.117,0,0,1,200.758,4.87Z" transform="translate(-190.028 0)" fill="#cf2d48"/>
    <path id="Path_3236" data-name="Path 3236" d="M59.012,3.656V0A7.749,7.749,0,0,0,53.5,2.284a7.918,7.918,0,0,0-.675.769l2.63,2.63a4.145,4.145,0,0,1,3.561-2.027Z" transform="translate(-51.213 0)" fill="#eb4132"/>
  </g>
</svg>
