<svg xmlns="http://www.w3.org/2000/svg" width="13.905" height="12.74" viewBox="0 0 13.905 12.74">
  <g id="filter" transform="translate(-64.267 -80.334)">
    <path id="Path_3121" data-name="Path 3121" d="M77.628,81.5H69.344a1.709,1.709,0,0,0-3.24,0H64.811a.544.544,0,0,0,0,1.088H66.1a1.709,1.709,0,0,0,3.24,0h8.285a.544.544,0,1,0,0-1.088Zm-9.9,1.165a.621.621,0,1,1,.621-.621A.622.622,0,0,1,67.724,82.664Z" transform="translate(0)" fill="#393177"/>
    <path id="Path_3122" data-name="Path 3122" d="M77.628,210.032H76.335a1.709,1.709,0,0,0-3.24,0H64.811a.544.544,0,1,0,0,1.088H73.1a1.709,1.709,0,0,0,3.24,0h1.293a.544.544,0,1,0,0-1.088ZM74.715,211.2a.621.621,0,1,1,.621-.621A.622.622,0,0,1,74.715,211.2Z" transform="translate(0 -123.872)" fill="#393177"/>
    <path id="Path_3123" data-name="Path 3123" d="M77.628,338.565H71.674a1.709,1.709,0,0,0-3.24,0H64.811a.544.544,0,0,0,0,1.088h3.624a1.709,1.709,0,0,0,3.24,0h5.954a.544.544,0,1,0,0-1.088Zm-7.574,1.165a.621.621,0,1,1,.621-.621A.622.622,0,0,1,70.054,339.73Z" transform="translate(0 -247.744)" fill="#393177"/>
  </g>
</svg>
