<svg xmlns="http://www.w3.org/2000/svg" width="41.016" height="38.895" viewBox="0 0 41.016 38.895">
  <g id="online-shopping" transform="translate(-24 -32)">
    <path id="Path_3153" data-name="Path 3153" d="M156.022,46.143a.707.707,0,0,1-.707-.707V38.365a4.95,4.95,0,1,0-9.9,0v7.072a.707.707,0,0,1-1.414,0V38.365a6.365,6.365,0,1,1,12.729,0v7.072A.707.707,0,0,1,156.022,46.143Z" transform="translate(-109.392)" fill="#dadcde"/>
    <path id="Path_3154" data-name="Path 3154" d="M48.044,180.287H24L25.414,152H46.63Z" transform="translate(0 -109.392)" fill="#eb423f"/>
    <path id="Path_3155" data-name="Path 3155" d="M287.072,180.287h-5.657L280,152h5.657Z" transform="translate(-233.37 -109.392)" fill="#d13330"/>
    <path id="Path_3156" data-name="Path 3156" d="M306.163,176.75h-.042a.707.707,0,0,1-.705-.666L304,152.042c0-.014,0-.027,0-.042h1.416l1.412,24A.708.708,0,0,1,306.163,176.75Z" transform="translate(-255.249 -109.392)" fill="#a82a27"/>
    <path id="Path_3157" data-name="Path 3157" d="M415.072,282.387h-5.657l-.088-1.143h0L408,264h5.657l1.3,16.945h0Z" transform="translate(-350.056 -211.492)" fill="#eba72e"/>
    <path id="Path_3158" data-name="Path 3158" d="M434.192,278.847a.631.631,0,0,1-.072,0,.707.707,0,0,1-.7-.636l-.026-.253L432,264.071a.644.644,0,0,1,0-.071h1.418l1.39,13.9.018.176a.707.707,0,0,1-.633.774Z" transform="translate(-371.934 -211.492)" fill="#e09f2c"/>
    <path id="Path_3159" data-name="Path 3159" d="M428.746,420.95h-.85l-1.978-2.968-1.978,2.968h-.85L423,419.807h0l2.188-3.281.141-.21a.708.708,0,0,1,1.177,0l.1.146,2.032,3.048h0Z" transform="translate(-363.73 -350.056)" fill="#e09f2c"/>
    <path id="Path_3160" data-name="Path 3160" d="M234.387,282.387H216L217.414,264h15.558Z" transform="translate(-175.028 -211.492)" fill="#f7b030"/>
    <path id="Path_3161" data-name="Path 3161" d="M276.95,313.9h-1.414A3.54,3.54,0,0,1,272,310.365v-5.657a.707.707,0,0,1,1.414,0v5.657a2.124,2.124,0,0,0,2.122,2.122h1.414a2.124,2.124,0,0,0,2.122-2.122v-5.657a.707.707,0,0,1,1.414,0v5.657A3.54,3.54,0,0,1,276.95,313.9Z" transform="translate(-226.078 -247.956)" fill="#e9eef2"/>
    <path id="Path_3162" data-name="Path 3162" d="M96,184h1.414v4.243H96Z" transform="translate(-65.635 -138.564)" fill="#dadcde"/>
    <path id="Path_3163" data-name="Path 3163" d="M96.707,46.143A.707.707,0,0,1,96,45.436V38.365a6.365,6.365,0,1,1,12.729,0v7.072a.707.707,0,0,1-1.414,0V38.365a4.95,4.95,0,1,0-9.9,0v7.072A.707.707,0,0,1,96.707,46.143Z" transform="translate(-65.635)" fill="#e9eef2"/>
    <path id="Path_3164" data-name="Path 3164" d="M84.243,223.072H80v-5.657L82.122,216l2.122,1.414Z" transform="translate(-51.05 -167.735)" fill="#f7b030"/>
  </g>
</svg>
