<svg xmlns="http://www.w3.org/2000/svg" width="26" height="26" viewBox="0 0 26 26">
  <g id="Group_834" data-name="Group 834" transform="translate(-1205 -538)">
    <circle id="Ellipse_49" data-name="Ellipse 49" cx="13" cy="13" r="13" transform="translate(1205 538)" fill="#dbdbdb"/>
    <g id="FB_icon-icons.com_65484" transform="translate(1214.547 544.285)">
      <path id="Path_3230" data-name="Path 3230" d="M143.792,18.42c-.071,0-.116.008-.161.008-.968,0-1.933,0-2.9,0-.136,0-.173-.035-.173-.163q0-3.182,0-6.368v-.184H139V9.451h.153c.425,0,.849,0,1.274,0,.108,0,.136-.029.136-.128-.006-.594-.006-1.191,0-1.786a2.494,2.494,0,0,1,.277-1.2,2.381,2.381,0,0,1,1.336-1.087,4.443,4.443,0,0,1,1.481-.248C144.478,5,145.3,5,146.119,5c.076,0,.139,0,.139.1q0,1.1,0,2.2a.206.206,0,0,1-.014.051h-.156c-.51,0-1.019,0-1.529,0a.752.752,0,0,0-.682.354.49.49,0,0,0-.074.251c-.008.453,0,.906-.006,1.359,0,.107.034.136.144.136.708-.005,1.415,0,2.123,0h.207c-.1.762-.2,1.509-.294,2.263h-2.183Z" transform="translate(-139 -5)" fill="#fff"/>
    </g>
  </g>
</svg>
