<svg xmlns="http://www.w3.org/2000/svg" width="44.265" height="43" viewBox="0 0 44.265 43">
  <g id="buying" transform="translate(-15.999 -24)">
    <circle id="Ellipse_39" data-name="Ellipse 39" cx="9" cy="9" r="9" transform="translate(41.263 49)" fill="#ffb632"/>
    <path id="Path_3165" data-name="Path 3165" d="M32,24H48.23V40.23H32Z" transform="translate(-14.525)" fill="#ffb632"/>
    <path id="Path_3166" data-name="Path 3166" d="M32,24H48.23v4.426H32Z" transform="translate(-14.525)" fill="#d46109"/>
    <path id="Path_3167" data-name="Path 3167" d="M101.164,35.8l-2.582-1.967L96,35.8V24h5.164Z" transform="translate(-72.623)" fill="#d13330"/>
    <path id="Path_3168" data-name="Path 3168" d="M362.951,325.919a1.466,1.466,0,1,1,1.475-1.466.738.738,0,0,0,1.475,0,2.949,2.949,0,0,0-2.213-2.85v-.866a.738.738,0,1,0-1.475,0v.866a2.942,2.942,0,0,0,.738,5.791,1.467,1.467,0,1,1-1.475,1.467.738.738,0,1,0-1.475,0,2.949,2.949,0,0,0,2.213,2.849v.831a.738.738,0,0,0,1.475,0v-.831a2.942,2.942,0,0,0-.738-5.791Z" transform="translate(-312.278 -268.704)" fill="#bd620e"/>
    <g id="Group_548" data-name="Group 548" transform="translate(15.999 26.213)">
      <path id="Path_3169" data-name="Path 3169" d="M38.869,267.182a.738.738,0,0,0-.738-.738,17.729,17.729,0,0,1-17.649-16.289l3.223,2.149a.738.738,0,1,0,.819-1.228L20.1,248.125a.738.738,0,0,0-1.023.2l-2.951,4.426a.738.738,0,0,0,1.228.819l1.731-2.6a19.208,19.208,0,0,0,19.05,16.942A.738.738,0,0,0,38.869,267.182Z" transform="translate(-15.999 -229.558)" fill="#1261a0"/>
      <path id="Path_3170" data-name="Path 3170" d="M262.141,63.821a.738.738,0,0,0,.2,1.023l4.426,2.951a.738.738,0,0,0,.985-.153l2.951-3.689a.738.738,0,1,0-1.152-.922L267.817,65.2A19.208,19.208,0,0,0,248.738,48a.738.738,0,0,0,0,1.475,17.729,17.729,0,0,1,17.649,16.289l-3.223-2.149A.738.738,0,0,0,262.141,63.821Z" transform="translate(-226.606 -48)" fill="#1261a0"/>
    </g>
  </g>
</svg>
