<svg xmlns="http://www.w3.org/2000/svg" width="15.823" height="15.823" viewBox="0 0 15.823 15.823"><g transform="translate(0.131 -3.054)"><g transform="translate(-0.131 3.054)"><path d="M14.574,10.418a9.046,9.046,0,0,1-2.838-.451,1.216,1.216,0,0,0-1.235.262L8.7,11.585A10.034,10.034,0,0,1,4.239,7.12l1.32-1.754a1.26,1.26,0,0,0,.309-1.274,9.043,9.043,0,0,1-.455-2.843A1.251,1.251,0,0,0,4.164,0H1.249A1.251,1.251,0,0,0,0,1.249,14.591,14.591,0,0,0,14.574,15.823a1.251,1.251,0,0,0,1.249-1.249V11.668A1.251,1.251,0,0,0,14.574,10.418Z" fill="#868b91"/></g></g></svg>