<svg xmlns="http://www.w3.org/2000/svg" width="15.977" height="15.312" viewBox="0 0 15.977 15.312">
  <path id="shapes-and-symbols" d="M12.4,15.8a.85.85,0,0,0,.827-1.039L12.2,10.238,15.687,7.18a.85.85,0,0,0-.481-1.486l-4.612-.419L8.77,1.008a.849.849,0,0,0-1.562,0L5.385,5.276.773,5.695A.85.85,0,0,0,.291,7.181l3.486,3.056L2.749,14.765a.849.849,0,0,0,1.263.917l3.977-2.377,3.977,2.378a.851.851,0,0,0,.435.121ZM10.629,5.358h0Zm-5.278,0h0Zm0,0" transform="translate(-0.001 -0.492)" fill="#e1e1e6"/>
</svg>
