<svg xmlns="http://www.w3.org/2000/svg" width="22.647" height="22.647" viewBox="0 0 22.647 22.647">
  <g id="facebook" transform="translate(0 0)">
    <path id="Path_3256" data-name="Path 3256" d="M19.816,0H2.831A2.834,2.834,0,0,0,0,2.831V19.816a2.834,2.834,0,0,0,2.831,2.831H19.816a2.834,2.834,0,0,0,2.831-2.831V2.831A2.834,2.834,0,0,0,19.816,0Z" transform="translate(0 0)" fill="#1976d2"/>
    <path id="Path_3257" data-name="Path 3257" d="M202.616,103.077h-3.539v-2.831c0-.781.634-.708,1.415-.708h1.415V96h-2.831a4.246,4.246,0,0,0-4.246,4.246v2.831H192v3.539h2.831V114.4h4.246v-7.785H201.2Z" transform="translate(-183.507 -91.754)" fill="#fafafa"/>
  </g>
</svg>
