<svg xmlns="http://www.w3.org/2000/svg" width="7.848" height="15.399" viewBox="0 0 7.848 15.399">
  <g id="FB_icon-icons.com_65484" transform="translate(-132 -5)">
    <path id="Path_3230" data-name="Path 3230" d="M144.174,20.387c-.076,0-.125.009-.174.009-1.045,0-2.087,0-3.132,0-.147,0-.186-.04-.186-.186q0-3.649,0-7.3V12.7H139V10.1h.165c.458,0,.917,0,1.375,0,.116,0,.147-.034.147-.147-.006-.681-.006-1.366,0-2.047a3.007,3.007,0,0,1,.3-1.372,2.61,2.61,0,0,1,1.442-1.247,4.544,4.544,0,0,1,1.6-.284C144.913,5,145.8,5,146.686,5c.083,0,.15,0,.15.113q0,1.261,0,2.521a.248.248,0,0,1-.015.058h-.168c-.55,0-1.1,0-1.65,0a.8.8,0,0,0-.736.406.588.588,0,0,0-.079.287c-.009.52,0,1.039-.006,1.559,0,.122.037.156.156.156.764-.006,1.528,0,2.292,0h.223c-.107.874-.211,1.73-.318,2.595h-2.356Z" transform="translate(-7)" fill="#fff"/>
  </g>
</svg>
