<svg xmlns="http://www.w3.org/2000/svg" width="8.254" height="15.19" viewBox="0 0 8.254 15.19"><g transform="translate(0)"><path d="M13.005,0H6.872a1.084,1.084,0,0,0-1.06,1.106V14.084a1.084,1.084,0,0,0,1.06,1.106H13a1.084,1.084,0,0,0,1.061-1.106V1.106A1.083,1.083,0,0,0,13.005,0ZM8.425.672h3.028c.077,0,.138.119.138.267s-.061.267-.138.267H8.425c-.077,0-.138-.12-.138-.267S8.348.672,8.425.672ZM9.939,14.1a.706.706,0,1,1,.677-.706A.693.693,0,0,1,9.939,14.1Zm3.332-2.419H6.607V1.867h6.664Z" transform="translate(-5.812)" fill="#393177"/></g></svg>