<svg xmlns="http://www.w3.org/2000/svg" width="22" height="15.867" viewBox="0 0 22 15.867">
  <g id="Group_532" data-name="Group 532" transform="translate(-37 -32.449)">
    <g id="menu" transform="translate(37 32.449)">
      <g id="Group_487" data-name="Group 487" transform="translate(0 0)">
        <path id="Path_3072" data-name="Path 3072" d="M14.673,28.523H1.005a1.142,1.142,0,0,1,0-2.267H14.673a1.142,1.142,0,0,1,0,2.267Z" transform="translate(0 -26.256)" fill="#393177"/>
        <path id="Path_3073" data-name="Path 3073" d="M9.045,225.446H1.005a1.142,1.142,0,0,1,0-2.267h8.04a1.142,1.142,0,0,1,0,2.267Z" transform="translate(0 -216.379)" fill="#393177"/>
      </g>
      <path id="Path_3074" data-name="Path 3074" d="M396.459,225.446h-1.608a1.142,1.142,0,0,1,0-2.267h1.608a1.142,1.142,0,0,1,0,2.267Z" transform="translate(-381.786 -216.379)" fill="#393177"/>
      <path id="Path_3075" data-name="Path 3075" d="M14.673,422.369H1.005a1.142,1.142,0,0,1,0-2.267H14.673a1.142,1.142,0,0,1,0,2.267Z" transform="translate(0 -406.502)" fill="#393177"/>
    </g>
    <g id="menu-2" data-name="menu" transform="translate(43.322 32.449)">
      <g id="Group_487-2" data-name="Group 487" transform="translate(0 0)">
        <path id="Path_3072-2" data-name="Path 3072" d="M14.673,28.523H1.005a1.142,1.142,0,0,1,0-2.267H14.673a1.142,1.142,0,0,1,0,2.267Z" transform="translate(0 -26.256)" fill="#393177"/>
        <path id="Path_3073-2" data-name="Path 3073" d="M9.045,225.446H1.005a1.142,1.142,0,0,1,0-2.267h8.04a1.142,1.142,0,0,1,0,2.267Z" transform="translate(0 -216.379)" fill="#393177"/>
      </g>
      <path id="Path_3074-2" data-name="Path 3074" d="M396.459,225.446h-1.608a1.142,1.142,0,0,1,0-2.267h1.608a1.142,1.142,0,0,1,0,2.267Z" transform="translate(-381.786 -216.379)" fill="#393177"/>
      <path id="Path_3075-2" data-name="Path 3075" d="M14.673,422.369H1.005a1.142,1.142,0,0,1,0-2.267H14.673a1.142,1.142,0,0,1,0,2.267Z" transform="translate(0 -406.502)" fill="#393177"/>
    </g>
  </g>
</svg>
