<svg xmlns="http://www.w3.org/2000/svg" width="18.224" height="18.224" viewBox="0 0 18.224 18.224">
  <g id="loupe" transform="translate(0.5 0.5)">
    <g id="Group_484" data-name="Group 484">
      <g id="Group_483" data-name="Group 483">
        <path id="Path_3070" data-name="Path 3070" d="M7.585,0A7.585,7.585,0,1,0,15.17,7.585,7.594,7.594,0,0,0,7.585,0Zm0,13.77A6.185,6.185,0,1,1,13.77,7.585,6.192,6.192,0,0,1,7.585,13.77Z" fill="#7e8389" stroke="#868b91" stroke-width="1"/>
      </g>
    </g>
    <g id="Group_486" data-name="Group 486" transform="translate(11.81 11.81)">
      <g id="Group_485" data-name="Group 485">
        <path id="Path_3071" data-name="Path 3071" d="M356.255,355.265l-4.014-4.014a.7.7,0,0,0-.99.99l4.014,4.014a.7.7,0,0,0,.99-.99Z" transform="translate(-351.046 -351.046)" fill="#7e8389" stroke="#868b91" stroke-width="1"/>
      </g>
    </g>
  </g>
</svg>
