<svg xmlns="http://www.w3.org/2000/svg" width="9.878" height="10.289" viewBox="0 0 9.878 10.289"><g transform="translate(0 0)"><g transform="translate(0 5.795)"><path d="M22.379,288.389c-3.185,0-4.939,1.462-4.939,4.118a.381.381,0,0,0,.387.376h9.1a.381.381,0,0,0,.387-.376C27.318,289.852,25.564,288.389,22.379,288.389Z" transform="translate(-17.44 -288.389)" fill="#282a29"/></g><g transform="translate(2.373 0)"><path d="M134.615,0a2.5,2.5,0,0,0-2.566,2.541,2.57,2.57,0,1,0,5.132,0A2.5,2.5,0,0,0,134.615,0Z" transform="translate(-132.049)" fill="#282a29"/></g></g></svg>