<svg xmlns="http://www.w3.org/2000/svg" width="13.808" height="17.001" viewBox="0 0 13.808 17.001">
  <g id="delete" transform="translate(0.003 0.002)">
    <path id="Path_3188" data-name="Path 3188" d="M222.8,154.7a.4.4,0,0,0-.4.4v7.525a.4.4,0,0,0,.8,0V155.1A.4.4,0,0,0,222.8,154.7Zm0,0" transform="translate(-213.546 -148.545)" fill="#868b91"/>
    <path id="Path_3189" data-name="Path 3189" d="M104.8,154.7a.4.4,0,0,0-.4.4v7.525a.4.4,0,1,0,.8,0V155.1A.4.4,0,0,0,104.8,154.7Zm0,0" transform="translate(-100.244 -148.545)" fill="#868b91"/>
    <path id="Path_3190" data-name="Path 3190" d="M1.128,5.06v9.81a2.2,2.2,0,0,0,.584,1.515A1.961,1.961,0,0,0,3.134,17h7.533a1.96,1.96,0,0,0,1.423-.615,2.2,2.2,0,0,0,.584-1.515V5.06a1.521,1.521,0,0,0-.39-2.991H10.245v-.5A1.564,1.564,0,0,0,8.669,0H5.133A1.564,1.564,0,0,0,3.556,1.571v.5H1.518a1.521,1.521,0,0,0-.39,2.991ZM10.667,16.2H3.134a1.261,1.261,0,0,1-1.21-1.334V5.095h9.954V14.87a1.261,1.261,0,0,1-1.21,1.334ZM4.353,1.571a.767.767,0,0,1,.78-.776H8.669a.767.767,0,0,1,.78.776v.5h-5.1ZM1.518,2.865H12.284a.717.717,0,1,1,0,1.433H1.518a.717.717,0,1,1,0-1.433Zm0,0" transform="translate(0 0)" fill="#868b91"/>
    <path id="Path_3191" data-name="Path 3191" d="M163.8,154.7a.4.4,0,0,0-.4.4v7.525a.4.4,0,1,0,.8,0V155.1A.4.4,0,0,0,163.8,154.7Zm0,0" transform="translate(-156.895 -148.545)" fill="#868b91"/>
  </g>
</svg>
