<svg id="food-delivery" xmlns="http://www.w3.org/2000/svg" width="39.903" height="39.903" viewBox="0 0 39.903 39.903">
  <path id="Path_3124" data-name="Path 3124" d="M184.507,0A3.511,3.511,0,0,0,181,3.507V4.754l2.338,1.169h2.338l2.338-1.169V3.507A3.511,3.511,0,0,0,184.507,0Z" transform="translate(-166.894)" fill="#ff6a4d"/>
  <path id="Path_3125" data-name="Path 3125" d="M229.507,4.754V3.507A3.511,3.511,0,0,0,226,0V5.923h1.169Z" transform="translate(-208.386)" fill="#e64d2e"/>
  <path id="Path_3126" data-name="Path 3126" d="M0,438.169a5.977,5.977,0,0,0,5.845,4.676,6.065,6.065,0,0,0,5.923-4.676L9.229,437H1.623Z" transform="translate(0 -402.942)" fill="#474f54"/>
  <path id="Path_3127" data-name="Path 3127" d="M33.507,399.014a3.507,3.507,0,1,1,0-7.014,3.508,3.508,0,1,1,0,7.014Z" transform="translate(-27.662 -361.449)" fill="#f2f9ff"/>
  <path id="Path_3128" data-name="Path 3128" d="M39.43,182H32.338L30,184.338v7.014l2.338,1.169H39.43l3.507-1.169v-6.313l-1.169-.7Z" transform="translate(-27.662 -167.816)" fill="#ff9100"/>
  <path id="Path_3129" data-name="Path 3129" d="M30,152v4.676H41.768l1.169-.605-1.169-.564V152Z" transform="translate(-27.662 -140.154)" fill="#fabe2c"/>
  <path id="Path_3130" data-name="Path 3130" d="M18.783,327.521H0v-1.169a8.25,8.25,0,0,1,8.261-8.183L10.21,317H21.121v8.573Z" transform="translate(0 -292.294)" fill="#ff6a4d"/>
  <path id="Path_3131" data-name="Path 3131" d="M0,302H16.445v2.338H0Z" transform="translate(0 -278.463)" fill="#32393f"/>
  <path id="Path_3132" data-name="Path 3132" d="M191.521,238.76v4.4l-1.169,1.38h-4.676v-9.352h-2.338A2.345,2.345,0,0,1,181,232.845V227h7.014v3.507a2.345,2.345,0,0,1,2.338,2.338v4.676Z" transform="translate(-166.894 -209.308)" fill="#575f64"/>
  <path id="Path_3133" data-name="Path 3133" d="M233.014,238.76v4.4l-1.169,1.38h-4.676v-9.352H226V227h3.507v3.507a2.345,2.345,0,0,1,2.338,2.338v4.676Z" transform="translate(-208.386 -209.308)" fill="#474f54"/>
  <g id="Group_543" data-name="Group 543" transform="translate(14.106 11.846)">
    <path id="Path_3134" data-name="Path 3134" d="M188.014,156.676v-1.169a3.507,3.507,0,0,0-7.014,0v2.338a3.507,3.507,0,0,0,3.507,3.507h9.43a3.507,3.507,0,0,0,3.507-3.507v-1.169Z" transform="translate(-181 -152)" fill="#ff6a4d"/>
    <path id="Path_3135" data-name="Path 3135" d="M238.937,157.845v-1.169h-9.43v-1.169A3.511,3.511,0,0,0,226,152v9.352h9.43A3.507,3.507,0,0,0,238.937,157.845Z" transform="translate(-222.493 -152)" fill="#e64d2e"/>
  </g>
  <path id="Path_3136" data-name="Path 3136" d="M185.676,76h-2.338L181,77.169v1.169a3.508,3.508,0,1,0,7.014,0V77.169Z" transform="translate(-166.894 -70.077)" fill="#ffe1ba"/>
  <path id="Path_3137" data-name="Path 3137" d="M229.507,78.338V77.169L227.169,76H226v5.923A3.578,3.578,0,0,0,229.507,78.338Z" transform="translate(-208.386 -70.077)" fill="#ffbfab"/>
  <path id="Path_3138" data-name="Path 3138" d="M184.507,61H181v2.338h9.352V61Z" transform="translate(-166.894 -56.246)" fill="#474f54"/>
  <path id="Path_3139" data-name="Path 3139" d="M226,61h5.845v2.338H226Z" transform="translate(-208.386 -56.246)" fill="#32393f"/>
  <path id="Path_3140" data-name="Path 3140" d="M311.314,205.445c-.129-.91-.385-2.7-.9-6.272L305.754,197v9.352a3.6,3.6,0,0,1-3.585,3.507H301v7.014h14.106l2.338-1.169v-2.338A8.228,8.228,0,0,0,311.314,205.445Z" transform="translate(-277.541 -181.647)" fill="#e64d2e"/>
  <g id="Group_544" data-name="Group 544" transform="translate(28.213 11.846)">
    <path id="Path_3141" data-name="Path 3141" d="M369.014,159.014h-3.507a3.507,3.507,0,0,1,0-7.014h3.507Z" transform="translate(-362 -152)" fill="#ff6a4d"/>
  </g>
  <path id="Path_3142" data-name="Path 3142" d="M368.2,362.456l-.34,1.3-1.976-.971a5.847,5.847,0,1,0,2.316-.328Z" transform="translate(-333.787 -334.208)" fill="#32393f"/>
  <g id="Group_545" data-name="Group 545" transform="translate(30.551 30.551)">
    <path id="Path_3143" data-name="Path 3143" d="M395.507,392a3.507,3.507,0,1,0,3.507,3.507A3.511,3.511,0,0,0,395.507,392Z" transform="translate(-392 -392)" fill="#dfe7f4"/>
  </g>
  <path id="Path_3144" data-name="Path 3144" d="M414.918,367.68l-.806-5.644c-.119-.007-.231-.036-.351-.036a5.778,5.778,0,0,0-1.964.364l.807,5.647Z" transform="translate(-379.702 -333.787)" fill="#c7cfe1"/>
</svg>
