<svg xmlns="http://www.w3.org/2000/svg" width="16.562" height="16.562" viewBox="0 0 16.562 16.562">
  <g id="clockwise" transform="translate(0 0)">
    <g id="Group_499" data-name="Group 499" transform="translate(0 0)">
      <g id="Group_498" data-name="Group 498" transform="translate(0 0)">
        <path id="Path_3090" data-name="Path 3090" d="M238.706,73.072l-2.693-2.693a.664.664,0,0,0,.034-.168.681.681,0,0,0-.345-.584V64.345a.345.345,0,0,0-.69,0v5.282a.681.681,0,0,0-.345.584.691.691,0,0,0,.69.69.663.663,0,0,0,.168-.034l2.693,2.693a.345.345,0,1,0,.488-.488Z" transform="translate(-227.075 -61.93)" fill="#393177"/>
        <path id="Path_3091" data-name="Path 3091" d="M355.867,419.616a.341.341,0,0,0-.474-.033,6.869,6.869,0,0,1-1,.677.345.345,0,0,0-.148.453l.3.619a.345.345,0,0,0,.472.156,8.244,8.244,0,0,0,1.271-.86.349.349,0,0,0,.034-.5Z" transform="translate(-342.752 -405.933)" fill="#393177"/>
        <path id="Path_3092" data-name="Path 3092" d="M10.306,15.25a.347.347,0,0,0-.416-.239,7.019,7.019,0,0,1-1.546.172A6.9,6.9,0,0,1,6.895,1.528a7,7,0,0,1,5.819,1.393l-.458.742a.344.344,0,0,0,.206.513l2.879.774a.342.342,0,0,0,.091.012.347.347,0,0,0,.335-.255.34.34,0,0,0-.03-.251h0l-.006-.011v0A8.357,8.357,0,0,0,.1,6.959a8.312,8.312,0,0,0,8.239,9.6,8.408,8.408,0,0,0,1.9-.216.348.348,0,0,0,.252-.433Z" transform="translate(0 -0.001)" fill="#393177"/>
        <path id="Path_3093" data-name="Path 3093" d="M430.818,340.308l-.634-.263a.341.341,0,0,0-.44.178,6.95,6.95,0,0,1-.607,1.049.346.346,0,0,0,.064.473l.54.424a.345.345,0,0,0,.492-.067,8.362,8.362,0,0,0,.77-1.331A.349.349,0,0,0,430.818,340.308Z" transform="translate(-415.191 -329.02)" fill="#393177"/>
        <path id="Path_3094" data-name="Path 3094" d="M468.12,256h-.686a.343.343,0,0,0-.34.333,6.947,6.947,0,0,1-.078.76.344.344,0,0,0,.264.4l.671.141a.346.346,0,0,0,.413-.278,8.343,8.343,0,0,0,.1-1A.347.347,0,0,0,468.12,256Z" transform="translate(-451.905 -247.719)" fill="#393177"/>
      </g>
    </g>
  </g>
</svg>
