<svg xmlns="http://www.w3.org/2000/svg" width="18.697" height="17.216" viewBox="0 0 18.697 17.216">
  <g id="_004-like" data-name="004-like" transform="translate(-4)">
    <g id="Group_482" data-name="Group 482" transform="translate(4 0)">
      <path id="Path_3069" data-name="Path 3069" d="M17.043,21.936a5.718,5.718,0,0,0-4.074-1.677,5.969,5.969,0,0,0-3.486,1.163c.129-.1,0-.006-.116.091a5.792,5.792,0,0,0-3.605-1.254,5.761,5.761,0,0,0-4.085,9.823l7.2,7.2a.672.672,0,0,0,.95,0l7.2-7.18a5.842,5.842,0,0,0,.017-8.164Z" transform="translate(0 -20.259)" fill="#868b91"/>
    </g>
  </g>
</svg>
