<svg id="_004-like" data-name="004-like" xmlns="http://www.w3.org/2000/svg" width="18.442" height="16.982" viewBox="0 0 18.442 16.982">
  <g id="Group_482" data-name="Group 482">
    <path id="Path_3069" data-name="Path 3069" d="M16.81,21.913A5.715,5.715,0,0,0,9.239,21.5a5.713,5.713,0,0,0-3.556-1.237,5.682,5.682,0,0,0-4.029,9.69l7.1,7.1a.663.663,0,0,0,.937,0l7.1-7.082a5.762,5.762,0,0,0,.017-8.053Zm-.96,7.119L9.222,35.64l-6.63-6.629a4.345,4.345,0,0,1,3.091-7.425,4.41,4.41,0,0,1,3.1,1.27.663.663,0,0,0,.933-.005,4.382,4.382,0,0,1,6.155-.005,4.435,4.435,0,0,1-.016,6.186Z" transform="translate(0 -20.259)" fill="#393177"/>
  </g>
</svg>
