<svg xmlns="http://www.w3.org/2000/svg" xmlns:xlink="http://www.w3.org/1999/xlink" width="24.409" height="24.409" viewBox="0 0 24.409 24.409">
  <defs>
    <linearGradient id="linear-gradient" x1="0.084" y1="0.916" x2="0.916" y2="0.084" gradientUnits="objectBoundingBox">
      <stop offset="0" stop-color="#ffd600"/>
      <stop offset="0.5" stop-color="#ff0100"/>
      <stop offset="1" stop-color="#d800b9"/>
    </linearGradient>
    <linearGradient id="linear-gradient-2" x1="0.146" y1="0.854" x2="0.854" y2="0.146" gradientUnits="objectBoundingBox">
      <stop offset="0" stop-color="#ff6400"/>
      <stop offset="0.5" stop-color="#ff0100"/>
      <stop offset="1" stop-color="#fd0056"/>
    </linearGradient>
    <linearGradient id="linear-gradient-3" x1="0.146" y1="0.854" x2="0.854" y2="0.146" gradientUnits="objectBoundingBox">
      <stop offset="0" stop-color="#f30072"/>
      <stop offset="1" stop-color="#e50097"/>
    </linearGradient>
  </defs>
  <g id="instagram" transform="translate(0)">
    <path id="Path_3253" data-name="Path 3253" d="M24.335,7.172a8.96,8.96,0,0,0-.567-2.962A5.981,5.981,0,0,0,22.36,2.048,5.983,5.983,0,0,0,20.2.64,8.958,8.958,0,0,0,17.236.074C15.935.014,15.519,0,12.2,0S8.474.014,7.172.073A8.961,8.961,0,0,0,4.21.641,5.982,5.982,0,0,0,2.048,2.048,5.982,5.982,0,0,0,.64,4.21,8.959,8.959,0,0,0,.074,7.172C.014,8.474,0,8.89,0,12.2s.014,3.73.074,5.032A8.958,8.958,0,0,0,.641,20.2,5.981,5.981,0,0,0,2.048,22.36,5.98,5.98,0,0,0,4.21,23.768a8.955,8.955,0,0,0,2.962.567c1.3.059,1.717.073,5.032.073s3.73-.014,5.032-.073a8.956,8.956,0,0,0,2.962-.567A6.239,6.239,0,0,0,23.768,20.2a8.957,8.957,0,0,0,.567-2.962c.059-1.3.073-1.717.073-5.032s-.014-3.73-.073-5.032Zm-2.2,9.964a6.753,6.753,0,0,1-.42,2.266A4.042,4.042,0,0,1,19.4,21.718a6.753,6.753,0,0,1-2.266.42c-1.287.059-1.673.071-4.932.071s-3.645-.012-4.932-.071a6.755,6.755,0,0,1-2.266-.42,3.782,3.782,0,0,1-1.4-.913,3.781,3.781,0,0,1-.913-1.4,6.752,6.752,0,0,1-.42-2.266C2.211,15.849,2.2,15.463,2.2,12.2s.012-3.645.071-4.932a6.757,6.757,0,0,1,.42-2.266A3.784,3.784,0,0,1,3.6,3.6a3.779,3.779,0,0,1,1.4-.913,6.751,6.751,0,0,1,2.266-.42C8.56,2.211,8.946,2.2,12.2,2.2h0c3.259,0,3.645.012,4.932.071a6.754,6.754,0,0,1,2.266.42,3.784,3.784,0,0,1,1.4.913,3.779,3.779,0,0,1,.913,1.4,6.746,6.746,0,0,1,.42,2.266c.059,1.287.071,1.673.071,4.932s-.012,3.645-.071,4.932Zm0,0" transform="translate(0 0)" fill="url(#linear-gradient)"/>
    <path id="Path_3254" data-name="Path 3254" d="M130.806,124.539a6.267,6.267,0,1,0,6.267,6.267A6.267,6.267,0,0,0,130.806,124.539Zm0,10.335a4.068,4.068,0,1,1,4.068-4.068A4.068,4.068,0,0,1,130.806,134.874Zm0,0" transform="translate(-118.602 -118.602)" fill="url(#linear-gradient-2)"/>
    <path id="Path_3255" data-name="Path 3255" d="M364.859,90.09a1.465,1.465,0,1,1-1.465-1.465A1.465,1.465,0,0,1,364.859,90.09Zm0,0" transform="translate(-344.675 -84.4)" fill="url(#linear-gradient-3)"/>
  </g>
</svg>
