<svg xmlns="http://www.w3.org/2000/svg" width="13.794" height="13.797" viewBox="0 0 13.794 13.797"><path d="M14.207,4.057a5.042,5.042,0,0,0-.321-1.674A3.534,3.534,0,0,0,11.868.364,5.054,5.054,0,0,0,10.194.043C9.456.008,9.221,0,7.348,0S5.241.008,4.5.04A5.042,5.042,0,0,0,2.831.361a3.366,3.366,0,0,0-1.224.8,3.4,3.4,0,0,0-.8,1.221A5.055,5.055,0,0,0,.492,4.054C.457,4.792.449,5.027.449,6.9s.008,2.108.04,2.844A5.042,5.042,0,0,0,.81,11.418a3.534,3.534,0,0,0,2.019,2.019,5.054,5.054,0,0,0,1.674.321c.736.032.97.04,2.843.04s2.108-.008,2.843-.04a5.04,5.04,0,0,0,1.674-.321,3.529,3.529,0,0,0,2.019-2.019A5.059,5.059,0,0,0,14.2,9.744c.032-.736.04-.97.04-2.844s0-2.108-.035-2.844ZM12.965,9.69a3.782,3.782,0,0,1-.237,1.28,2.289,2.289,0,0,1-1.31,1.31,3.8,3.8,0,0,1-1.28.237c-.728.032-.946.04-2.787.04s-2.062-.008-2.787-.04a3.779,3.779,0,0,1-1.28-.237,2.123,2.123,0,0,1-.792-.515,2.145,2.145,0,0,1-.515-.792,3.8,3.8,0,0,1-.237-1.28c-.032-.728-.04-.946-.04-2.787s.008-2.062.04-2.787a3.78,3.78,0,0,1,.237-1.28,2.1,2.1,0,0,1,.518-.792,2.142,2.142,0,0,1,.792-.515,3.8,3.8,0,0,1,1.28-.237c.728-.032.946-.04,2.787-.04s2.062.008,2.787.04a3.781,3.781,0,0,1,1.28.237,2.121,2.121,0,0,1,.792.515,2.145,2.145,0,0,1,.515.792,3.8,3.8,0,0,1,.237,1.28c.032.728.04.946.04,2.787S13,8.962,12.965,9.69Zm0,0" transform="translate(-0.449 0)" fill="#393177"/><path d="M128.493,124.5a3.545,3.545,0,1,0,3.544,3.545A3.545,3.545,0,0,0,128.493,124.5Zm0,5.844a2.3,2.3,0,1,1,2.3-2.3A2.3,2.3,0,0,1,128.493,130.344Zm0,0" transform="translate(-121.594 -121.145)" fill="#393177"/><path d="M364.1,89.429a.827.827,0,1,1-.827-.827A.827.827,0,0,1,364.1,89.429Zm0,0" transform="translate(-352.693 -86.214)" fill="#393177"/></svg>