<svg xmlns="http://www.w3.org/2000/svg" width="50" height="50" viewBox="0 0 50 50">
  <g id="Group_772" data-name="Group 772" transform="translate(-19993 -6611)">
    <circle id="Ellipse_45" data-name="Ellipse 45" cx="25" cy="25" r="25" transform="translate(19993 6611)" fill="#dfd9ff"/>
    <g id="Group_474" data-name="Group 474" transform="translate(20007.945 6635.428)">
      <g id="Group_473" data-name="Group 473">
        <path id="Path_3063" data-name="Path 3063" d="M27.744,288.389c-6.644,0-10.3,3.051-10.3,8.591a.8.8,0,0,0,.807.783H37.24a.8.8,0,0,0,.807-.783C38.048,291.44,34.388,288.389,27.744,288.389Z" transform="translate(-17.44 -288.389)" fill="#fff"/>
      </g>
    </g>
    <g id="Group_476" data-name="Group 476" transform="translate(20012.895 6623.338)">
      <g id="Group_475" data-name="Group 475">
        <path id="Path_3064" data-name="Path 3064" d="M137.4,0a5.21,5.21,0,0,0-5.354,5.3,5.361,5.361,0,1,0,10.707,0A5.211,5.211,0,0,0,137.4,0Z" transform="translate(-132.049)" fill="#fff"/>
      </g>
    </g>
  </g>
</svg>
